<svg width="24" height="24" viewBox="0 0 24 24" fill="none" xmlns="http://www.w3.org/2000/svg">
<path d="M1 1.31787H4H4.79167L4.95833 2.1512L5.08333 2.6512H21.875H24L23.375 4.6512L20.6667 13.3179H7.08333L7.45833 15.3179H20.3333H21.3333V17.3179H20.3333H6.66667H5.83333L5.66667 16.5262L3.16667 3.31787H1H0V1.31787H1ZM6.70833 11.3179H19.1667L21.25 4.6512H5.45833L6.70833 11.3179ZM7.33333 22.6512C6.58333 22.6512 5.95833 22.2762 5.58333 21.6512C5.20833 21.0679 5.20833 20.2762 5.58333 19.6512C5.95833 19.0679 6.58333 18.6512 7.33333 18.6512C8.04167 18.6512 8.66667 19.0679 9.04167 19.6512C9.41667 20.2762 9.41667 21.0679 9.04167 21.6512C8.66667 22.2762 8.04167 22.6512 7.33333 22.6512ZM21.3333 20.6512C21.3333 21.4012 20.9167 22.0262 20.3333 22.4012C19.7083 22.7762 18.9167 22.7762 18.3333 22.4012C17.7083 22.0262 17.3333 21.4012 17.3333 20.6512C17.3333 19.9429 17.7083 19.3179 18.3333 18.9429C18.9167 18.5679 19.7083 18.5679 20.3333 18.9429C20.9167 19.3179 21.3333 19.9429 21.3333 20.6512Z" fill="black"/>
</svg>
